<svg width="256" height="256" viewBox="0 0 256 256" fill="none" xmlns="http://www.w3.org/2000/svg">
<g clip-path="url(#clip0)">
<g opacity="0.9">
<path d="M98.1062 204.99C75.4851 174.353 121.191 102.012 209.588 36.0772C209.936 35.8442 210.516 35.4947 210.864 35.1453C184.994 11.8469 149.845 -0.617716 112.607 3.92546C44.2796 12.1964 -4.32667 74.5195 3.90972 143.133C12.1461 211.747 74.2091 260.557 142.536 252.286C187.082 246.927 223.276 218.503 240.793 180.411C173.046 219.668 116.203 229.687 98.1062 204.99Z" fill="#2B59B2"/>
<circle cx="128" cy="128" r="106.25" fill="#498AEF" fill-opacity="0.4"/>
<circle cx="128" cy="128" r="62.5" fill="#498AEF" fill-opacity="0.7"/>
</g>
<g clip-path="url(#clip1)">
<path d="M164.038 66.1326V60.0564H89.385V66.1326C89.385 84.4335 96.6558 101.987 109.597 114.929L112.277 117.609C114.69 120.022 116.047 123.296 116.047 126.711C116.047 130.126 114.69 133.4 112.277 135.813L109.597 138.493C96.6558 151.435 89.385 168.986 89.385 187.289V193.366H164.038V187.289C164.038 168.989 156.768 151.435 143.826 138.493L141.146 135.813C138.733 133.4 137.376 130.126 137.376 126.711C137.376 123.295 138.733 120.021 141.146 117.608L143.826 114.929C156.768 101.988 164.038 84.4362 164.038 66.1326Z" fill="white"/>
<path d="M169.371 60.0564H84.0526C81.1066 60.0564 78.7202 57.6701 78.7202 54.7241C78.7199 51.7781 81.1063 49.3917 84.0526 49.3917H169.371C172.317 49.3917 174.703 51.7781 174.703 54.7241C174.703 57.6704 172.317 60.0564 169.371 60.0564Z" fill="#1F4080"/>
<path d="M169.371 204.031H84.0526C81.1066 204.031 78.7202 201.645 78.7202 198.699C78.7202 195.753 81.1066 193.366 84.0526 193.366H169.371C172.317 193.366 174.703 195.753 174.703 198.699C174.703 201.645 172.317 204.031 169.371 204.031Z" fill="#1F4080"/>
<path d="M126.711 126.711C125.237 126.711 124.045 125.52 124.045 124.045C124.045 118.467 121.875 113.228 117.931 109.285L115.254 106.608C111.111 102.467 108.226 97.7935 105.725 93.3597C105.467 92.9012 105.352 92.3307 105.392 91.8055C105.392 91.8055 105.437 91.2322 105.678 90.3442C106.955 85.6277 111.175 82.4576 116.18 82.4576C118.6 82.4576 120.926 83.2148 122.901 84.644C125.349 86.4145 131.521 89.3844 145.375 89.3844C148.057 89.3844 148.974 90.9628 149.243 91.6427C150.419 94.6183 147.524 97.7696 140.631 104.251C139.688 105.139 138.829 105.947 138.171 106.603L135.488 109.285C131.548 113.228 129.377 118.467 129.377 124.045C129.378 125.52 128.186 126.711 126.711 126.711Z" fill="#2B59B2"/>
<path d="M153.197 185.367H100.226C99.4844 185.367 98.7725 185.058 98.2712 184.514C97.7674 183.968 97.5113 183.237 97.5674 182.496C98.234 173.85 101.703 170.256 105.715 166.096C106.257 165.537 106.819 164.953 107.398 164.337C110.746 160.759 115.476 158.706 120.377 158.706H133.047C137.95 158.706 142.679 160.759 146.026 164.337C146.604 164.955 147.169 165.539 147.711 166.099C151.723 170.258 155.189 173.85 155.856 182.494C155.912 183.235 155.659 183.965 155.152 184.512C154.65 185.058 153.939 185.367 153.197 185.367Z" fill="#2B59B2"/>
<path d="M126.712 140.042C125.237 140.042 124.045 138.851 124.045 137.376V134.71C124.045 133.235 125.237 132.043 126.712 132.043C128.186 132.043 129.378 133.235 129.378 134.71V137.376C129.378 138.851 128.186 140.042 126.712 140.042Z" fill="#2B59B2"/>
<path d="M126.712 153.373C125.237 153.373 124.045 152.182 124.045 150.707V148.041C124.045 146.566 125.237 145.374 126.712 145.374C128.186 145.374 129.378 146.566 129.378 148.041V150.707C129.378 152.182 128.186 153.373 126.712 153.373Z" fill="#2B59B2"/>
</g>
</g>
<defs>
<clipPath id="clip0">
<rect width="250" height="250" fill="white" transform="translate(3 3)"/>
</clipPath>
<clipPath id="clip1">
<rect width="154.639" height="154.639" fill="white" transform="translate(49.3918 49.3917)"/>
</clipPath>
</defs>
</svg>
