<svg width="145" height="60" viewBox="0 0 145 60" fill="none" xmlns="http://www.w3.org/2000/svg">
<g clip-path="url(#clip0)">
<g opacity="0.9">
<path d="M26.217 42.3185C22.5976 37.4165 29.9106 25.8419 44.054 15.2924C44.1097 15.2551 44.2025 15.1992 44.2582 15.1432C40.1191 11.4155 34.4951 9.42117 28.5371 10.1481C17.6047 11.4714 9.82773 21.4431 11.1456 32.4213C12.4634 43.3995 22.3934 51.2091 33.3258 49.8858C40.4532 49.0284 46.2442 44.4805 49.0469 38.3857C38.2073 44.6669 29.1125 46.2699 26.217 42.3185Z" fill="#2B59B2"/>
<circle cx="31" cy="30" r="17" fill="#498AEF" fill-opacity="0.4"/>
<circle cx="31" cy="30" r="10" fill="#498AEF" fill-opacity="0.7"/>
</g>
<g clip-path="url(#clip1)">
<path d="M36.7661 20.1012V19.129H24.8216V20.1012C24.8216 23.0294 25.9849 25.838 28.0556 27.9087L28.4843 28.3374C28.8704 28.7235 29.0875 29.2473 29.0875 29.7938C29.0875 30.3402 28.8704 30.8641 28.4843 31.2501L28.0556 31.6789C25.9849 33.7495 24.8216 36.5578 24.8216 39.4863V40.4585H36.7661V39.4863C36.7661 36.5582 35.6028 33.7495 33.5321 31.6788L33.1034 31.2501C32.7173 30.864 32.5002 30.3402 32.5002 29.7937C32.5002 29.2473 32.7173 28.7234 33.1034 28.3374L33.5321 27.9086C35.6028 25.8381 36.7661 23.0298 36.7661 20.1012Z" fill="white"/>
<path d="M37.6192 19.129H23.9683C23.497 19.129 23.1152 18.7472 23.1152 18.2758C23.1151 17.8045 23.4969 17.4227 23.9683 17.4227H37.6193C38.0906 17.4227 38.4724 17.8045 38.4724 18.2758C38.4724 18.7472 38.0906 19.129 37.6192 19.129Z" fill="#1F4080"/>
<path d="M37.6192 42.165H23.9683C23.497 42.165 23.1152 41.7832 23.1152 41.3118C23.1152 40.8404 23.497 40.4586 23.9683 40.4586H37.6193C38.0906 40.4586 38.4724 40.8404 38.4724 41.3118C38.4724 41.7832 38.0906 42.165 37.6192 42.165Z" fill="#1F4080"/>
<path d="M30.7938 29.7938C30.5579 29.7938 30.3672 29.6031 30.3672 29.3672C30.3672 28.4748 30.0199 27.6365 29.389 27.0055L28.9607 26.5772C28.2978 25.9148 27.8362 25.1669 27.436 24.4575C27.3947 24.3842 27.3763 24.2929 27.3827 24.2088C27.3827 24.2088 27.39 24.1171 27.4284 23.9751C27.6327 23.2204 28.308 22.7132 29.1087 22.7132C29.4961 22.7132 29.8681 22.8343 30.1842 23.063C30.5758 23.3463 31.5634 23.8215 33.7799 23.8215C34.2091 23.8215 34.3558 24.074 34.3989 24.1828C34.5871 24.6589 34.1238 25.1631 33.021 26.2002C32.87 26.3422 32.7327 26.4715 32.6273 26.5764L32.1981 27.0056C31.5676 27.6365 31.2203 28.4748 31.2203 29.3672C31.2204 29.6031 31.0297 29.7938 30.7938 29.7938Z" fill="#2B59B2"/>
<path d="M35.0316 39.1788H26.5561C26.4375 39.1788 26.3236 39.1293 26.2434 39.0422C26.1628 38.9548 26.1218 38.8379 26.1308 38.7193C26.2375 37.3359 26.7925 36.7609 27.4345 36.0954C27.5211 36.0058 27.6111 35.9124 27.7036 35.8139C28.2394 35.2414 28.9962 34.9129 29.7803 34.9129H31.8075C32.592 34.9129 33.3487 35.2414 33.8841 35.8139C33.9767 35.9128 34.0671 36.0062 34.1537 36.0958C34.7958 36.7613 35.3503 37.336 35.4569 38.719C35.4659 38.8375 35.4254 38.9544 35.3443 39.0419C35.2641 39.1293 35.1502 39.1788 35.0316 39.1788Z" fill="#2B59B2"/>
<path d="M30.7939 31.9267C30.5579 31.9267 30.3672 31.7361 30.3672 31.5001V31.0735C30.3672 30.8376 30.5579 30.6469 30.7939 30.6469C31.0298 30.6469 31.2205 30.8376 31.2205 31.0735V31.5001C31.2205 31.7361 31.0298 31.9267 30.7939 31.9267Z" fill="#2B59B2"/>
<path d="M30.7939 34.0597C30.5579 34.0597 30.3672 33.869 30.3672 33.6331V33.2065C30.3672 32.9705 30.5579 32.7798 30.7939 32.7798C31.0298 32.7798 31.2205 32.9705 31.2205 33.2065V33.6331C31.2205 33.869 31.0298 34.0597 30.7939 34.0597Z" fill="#2B59B2"/>
</g>
</g>
<path d="M67.552 37.216C65.856 37.216 64.368 36.864 63.088 36.16C61.824 35.456 60.84 34.448 60.136 33.136C59.448 31.824 59.104 30.288 59.104 28.528C59.104 26.784 59.448 25.256 60.136 23.944C60.84 22.632 61.824 21.624 63.088 20.92C64.368 20.216 65.856 19.864 67.552 19.864C69.584 19.864 71.368 20.4 72.904 21.472C73.176 21.664 73.368 21.872 73.48 22.096C73.608 22.32 73.672 22.608 73.672 22.96C73.672 23.456 73.528 23.88 73.24 24.232C72.968 24.568 72.632 24.736 72.232 24.736C71.992 24.736 71.776 24.704 71.584 24.64C71.392 24.56 71.168 24.44 70.912 24.28C70.352 23.944 69.824 23.704 69.328 23.56C68.832 23.416 68.32 23.344 67.792 23.344C66.368 23.344 65.304 23.776 64.6 24.64C63.912 25.488 63.568 26.784 63.568 28.528C63.568 30.288 63.912 31.6 64.6 32.464C65.304 33.312 66.368 33.736 67.792 33.736C68.272 33.736 68.736 33.664 69.184 33.52C69.632 33.36 70.208 33.12 70.912 32.8C71.248 32.624 71.496 32.504 71.656 32.44C71.816 32.376 72.008 32.344 72.232 32.344C72.632 32.344 72.968 32.52 73.24 32.872C73.528 33.208 73.672 33.624 73.672 34.12C73.672 34.456 73.608 34.744 73.48 34.984C73.368 35.208 73.176 35.416 72.904 35.608C71.368 36.68 69.584 37.216 67.552 37.216ZM89.1536 28.216C90.1456 28.52 90.9056 29.032 91.4336 29.752C91.9616 30.456 92.2256 31.328 92.2256 32.368C92.2256 33.296 91.9776 34.112 91.4816 34.816C91.0016 35.504 90.3056 36.04 89.3936 36.424C88.4976 36.808 87.4416 37 86.2256 37H79.8416C79.1856 37 78.6816 36.824 78.3296 36.472C77.9776 36.12 77.8016 35.616 77.8016 34.96V22.12C77.8016 21.464 77.9776 20.96 78.3296 20.608C78.6816 20.256 79.1856 20.08 79.8416 20.08H85.9856C87.7616 20.08 89.1696 20.48 90.2096 21.28C91.2656 22.064 91.7936 23.128 91.7936 24.472C91.7936 25.336 91.5616 26.104 91.0976 26.776C90.6336 27.432 89.9856 27.912 89.1536 28.216ZM82.0976 26.728H85.2416C86.0736 26.728 86.6816 26.6 87.0656 26.344C87.4496 26.088 87.6416 25.68 87.6416 25.12C87.6416 24.528 87.4496 24.096 87.0656 23.824C86.6816 23.552 86.0736 23.416 85.2416 23.416H82.0976V26.728ZM85.6736 33.664C86.5536 33.664 87.1776 33.528 87.5456 33.256C87.9296 32.968 88.1216 32.504 88.1216 31.864C88.1216 31.224 87.9296 30.768 87.5456 30.496C87.1776 30.208 86.5536 30.064 85.6736 30.064H82.0976V33.664H85.6736ZM102.849 37.216C101.569 37.216 100.377 37.08 99.2731 36.808C98.1851 36.52 97.2891 36.128 96.5851 35.632C96.3131 35.424 96.1131 35.208 95.9851 34.984C95.8731 34.76 95.8171 34.472 95.8171 34.12C95.8171 33.64 95.9611 33.224 96.2491 32.872C96.5371 32.52 96.8731 32.344 97.2571 32.344C97.4651 32.344 97.6651 32.376 97.8571 32.44C98.0491 32.504 98.2891 32.624 98.5771 32.8C99.2331 33.168 99.8811 33.432 100.521 33.592C101.177 33.752 101.913 33.832 102.729 33.832C103.673 33.832 104.385 33.696 104.865 33.424C105.361 33.136 105.609 32.72 105.609 32.176C105.609 31.808 105.377 31.496 104.913 31.24C104.465 30.968 103.601 30.704 102.321 30.448C100.737 30.112 99.4971 29.712 98.6011 29.248C97.7051 28.784 97.0731 28.24 96.7051 27.616C96.3531 26.976 96.1771 26.208 96.1771 25.312C96.1771 24.288 96.4811 23.36 97.0891 22.528C97.6971 21.696 98.5291 21.048 99.5851 20.584C100.657 20.104 101.857 19.864 103.185 19.864C104.353 19.864 105.393 19.992 106.305 20.248C107.217 20.504 108.049 20.904 108.801 21.448C109.089 21.656 109.289 21.88 109.401 22.12C109.529 22.344 109.593 22.624 109.593 22.96C109.593 23.44 109.449 23.856 109.161 24.208C108.889 24.56 108.561 24.736 108.177 24.736C107.969 24.736 107.777 24.712 107.601 24.664C107.425 24.6 107.177 24.472 106.857 24.28C106.777 24.232 106.545 24.112 106.161 23.92C105.793 23.712 105.353 23.552 104.841 23.44C104.345 23.312 103.801 23.248 103.209 23.248C102.393 23.248 101.737 23.408 101.241 23.728C100.745 24.032 100.497 24.44 100.497 24.952C100.497 25.256 100.585 25.504 100.761 25.696C100.937 25.888 101.265 26.08 101.745 26.272C102.225 26.448 102.937 26.632 103.881 26.824C105.417 27.16 106.625 27.568 107.505 28.048C108.385 28.512 109.009 29.056 109.377 29.68C109.745 30.304 109.929 31.04 109.929 31.888C109.929 32.944 109.633 33.88 109.041 34.696C108.449 35.496 107.617 36.12 106.545 36.568C105.489 37 104.257 37.216 102.849 37.216Z" fill="#2B59B2"/>
<defs>
<clipPath id="clip0">
<rect width="40" height="40" fill="white" transform="translate(11 10)"/>
</clipPath>
<clipPath id="clip1">
<rect width="24.7423" height="24.7423" fill="white" transform="translate(18.4227 17.4227)"/>
</clipPath>
</defs>
</svg>
